<svg width="134" height="52" viewBox="0 0 134 52" fill="none" xmlns="http://www.w3.org/2000/svg">
<g clip-path="url(#clip0_621_28439)">
<path d="M30.4502 29.3951L26.6166 31.6654C24.7973 29.9966 21.3076 28.8072 18.9007 28.4587L18.9007 51.7109L14.8924 51.7109L14.8924 28.4587C12.4295 28.9379 9.30151 30.0582 7.37694 31.6654L3.45253 29.3951C7.00748 25.7843 11.5533 23.8889 16.6962 23.8492C21.7405 23.8103 26.9109 25.7863 30.4502 29.3951Z" fill="black"/>
<path fill-rule="evenodd" clip-rule="evenodd" d="M7.42265 20.1197C9.41695 18.63 11.0762 16.7385 12.4004 14.4449C13.7259 12.1522 14.5345 9.76945 14.826 7.29672C15.1175 4.82399 14.9575 2.39174 14.346 -5.38325e-08L9.93779 2.45898C10.1513 3.69426 10.203 4.92882 10.093 6.16266C9.983 7.3965 9.69386 8.61958 9.22558 9.83192L3.31832 3.4518L0.863503 4.81456L0.863503 7.61993L6.81799 14.002C6.00221 15.0137 5.08756 15.8756 4.07403 16.5878C3.0605 17.3 2.04003 17.9093 0.863503 18.3421L0.863495 23.152C3.24194 22.4865 5.42835 21.6093 7.42265 20.1197Z" fill="#FF6DFB"/>
<path fill-rule="evenodd" clip-rule="evenodd" d="M27.1723 20.1197C25.178 18.63 23.5188 16.7385 22.1946 14.4449C20.869 12.1522 20.0605 9.76945 19.769 7.29672C19.4775 4.82399 19.6374 2.39174 20.2489 -5.38325e-08L24.6572 2.45898C24.4437 3.69426 24.3919 4.92882 24.502 6.16266C24.612 7.3965 24.9011 8.61958 25.3694 9.83192L31.2767 3.4518L33.7315 4.81456L33.7315 7.61993L27.777 14.002C28.5928 15.0137 29.5074 15.8756 30.5209 16.5878C31.5345 17.3 32.5549 17.9093 33.7315 18.3421L33.7315 23.152C31.353 22.4865 29.1666 21.6093 27.1723 20.1197Z" fill="#FF6DFB"/>
<path d="M33.3241 35.583C34.9787 33.7745 37.249 32.7356 40.0195 32.7356V36.5066C37.1335 36.622 34.9402 38.3672 33.3241 40.4836V51.8069H29.3222L29.3222 32.0662H33.3241V35.583Z" fill="black"/>
<path d="M49.0686 32.7981C55.0714 32.7981 58.8039 37.3772 58.0343 43.4954H43.1508C43.5356 46.2274 45.9133 48.3999 49.2995 48.3999C51.0695 48.3999 53.1418 47.3498 53.8729 46.1954H57.781C56.6266 49.4661 53.2244 51.8069 49.2995 51.8069C43.6045 51.8069 39.7566 47.6896 39.7566 42.3025C39.7566 36.9539 43.566 32.7981 49.0686 32.7981ZM49.1071 36.1843C46.1057 36.1843 43.9524 37.9784 43.1508 40.7249H55.0754C54.5743 37.8782 51.9161 36.1843 49.1071 36.1843Z" fill="black"/>
<path d="M70.0343 32.661C74.7287 32.661 77.9225 35.8933 77.9225 41.1265V51.8094H73.9207V41.3574C73.9207 38.0481 72.1506 36.2781 69.2262 36.2781C67.4946 36.2781 65.6091 37.2401 64.1854 39.0101V51.8094H60.1835V32.0686H64.1854V34.7389C65.763 33.3921 67.7255 32.661 70.0343 32.661Z" fill="black"/>
<path d="M94.8373 23.9495H98.8007V51.807H94.8373V49.883C93.2982 51.1143 91.3357 51.807 89.0269 51.807C83.9477 51.807 79.8688 47.5742 79.8688 42.2641C79.8688 37.0309 83.9477 32.7981 89.0269 32.7981C91.3357 32.7981 93.2982 33.4908 94.8373 34.6836V23.9495ZM89.3461 48.5001C92.9595 48.3612 95.6591 45.8476 95.6591 42.2641C95.6591 38.747 92.922 36.0745 89.3461 36.0745C86.0369 36.0745 83.2335 39.0703 83.2335 42.2641C83.2335 45.4963 86.0369 48.5001 89.3461 48.5001Z" fill="black"/>
<path d="M103.403 28.8748C101.979 28.8748 100.863 27.8359 100.863 26.4121C100.863 24.9884 101.979 23.9495 103.403 23.9495C104.788 23.9495 105.942 24.9884 105.942 26.4121C105.942 27.8359 104.788 28.8748 103.403 28.8748ZM101.475 32.0662H105.438V51.807H101.475V32.0662Z" fill="black"/>
<path d="M121.537 47.4299L122.114 51.0855C120.536 51.6627 119.228 51.8166 117.996 51.8166C113.379 51.8166 110.916 49.0461 110.916 44.3901V35.4139H105.438V32.0662H110.916V23.9495H114.918V32.0662H120.201V35.4139H114.918V44.3901C114.918 47.0067 116.226 48.1226 118.458 48.1226C119.536 48.1226 120.613 47.8147 121.537 47.4299Z" fill="black"/>
<path d="M123.854 14.6302C125.327 14.8071 126.591 14.8956 127.647 14.8956C129.849 14.8956 131.679 14.8292 133.136 14.6966C133.062 14.8735 132.951 15.1167 132.802 15.4262C132.653 15.7357 132.281 16.3253 131.686 17.195C131.091 18.0499 130.422 18.8532 129.678 19.6049C130.213 19.6049 130.712 19.7597 131.173 20.0692C131.381 20.2019 131.567 20.4156 131.731 20.7104C131.894 20.9905 131.976 21.3663 131.976 21.838C131.976 22.2949 131.865 22.774 131.642 23.2751C131.433 23.7616 131.084 24.2553 130.593 24.7565C129.581 25.8178 127.766 26.5842 125.148 27.0559C124.598 26.6284 124.07 26.0462 123.564 25.3092C123.058 24.587 122.694 23.9679 122.471 23.452L122.114 22.6561C123.527 23.0098 124.754 23.1867 125.795 23.1867C127.03 23.1867 127.856 22.9951 128.272 22.6118C128.466 22.435 128.562 22.2434 128.562 22.037C128.562 21.6685 128.272 21.4179 127.692 21.2853C127.32 21.2116 126.963 21.1747 126.621 21.1747L125.595 21.241C125.357 21.241 125.193 21.2042 125.104 21.1305L128.161 18.2783C127.209 18.2783 126.286 18.3594 125.394 18.5216C124.501 18.6837 123.847 18.8458 123.43 19.008L122.805 19.2512C123.505 17.5561 123.854 16.0158 123.854 14.6302Z" fill="black"/>
</g>
<defs>
<clipPath id="clip0_621_28439">
<rect width="132.273" height="51.9071" fill="white" transform="translate(0.863495)"/>
</clipPath>
</defs>
</svg>
