<svg width="32" height="33" viewBox="0 0 32 33" fill="none" xmlns="http://www.w3.org/2000/svg">
<rect y="0.5625" width="32" height="32" rx="16" fill="#323232"/>
<path d="M14.644 12.4025V17.6105C14.644 19.5905 13.48 20.7065 11.668 20.7065C10.072 20.7065 8.92 19.7585 8.74 18.1865H9.7C9.844 19.2305 10.624 19.8185 11.728 19.8185C12.88 19.8185 13.684 19.0145 13.684 17.5865V12.4025H14.644ZM19.0115 12.2585C20.6195 12.2585 22.0115 12.9665 22.2155 14.6465H21.2675C21.0875 13.6745 20.4035 13.0745 19.0715 13.0745C17.8715 13.0745 17.0915 13.6145 17.0915 14.5385C17.0915 15.2585 17.6075 15.6665 18.5795 15.8585L19.9115 16.1105C21.3755 16.3985 22.2035 17.0585 22.2035 18.2585C22.2035 19.7465 20.9795 20.7065 19.1435 20.7065C17.1875 20.7065 15.9155 19.7105 15.7355 17.9465H16.6715C16.8635 19.1705 17.7395 19.8545 19.1915 19.8545C20.4395 19.8545 21.2315 19.2905 21.2315 18.3665C21.2315 17.7185 20.7875 17.2145 19.7555 17.0345L18.2315 16.7345C16.7795 16.4585 16.0835 15.7145 16.0835 14.5985C16.0835 13.1705 17.2595 12.2585 19.0115 12.2585Z" fill="white"/>
</svg>
