<svg width="43" height="35" viewBox="0 0 43 35" fill="none" xmlns="http://www.w3.org/2000/svg">
<path d="M3.5 3.5L19.0442 15.59C20.4887 16.7134 22.5113 16.7134 23.9558 15.59L39.5 3.5M7.9 33.5H35.1C37.3402 33.5 38.4603 33.5 39.316 33.064C40.0686 32.6805 40.6805 32.0686 41.064 31.316C41.5 30.4603 41.5 29.3402 41.5 27.1V7.9C41.5 5.65979 41.5 4.53968 41.064 3.68404C40.6805 2.93139 40.0686 2.31947 39.316 1.93597C38.4603 1.5 37.3402 1.5 35.1 1.5H7.9C5.65979 1.5 4.53968 1.5 3.68404 1.93597C2.93139 2.31947 2.31947 2.93139 1.93597 3.68404C1.5 4.53968 1.5 5.65979 1.5 7.9V27.1C1.5 29.3402 1.5 30.4603 1.93597 31.316C2.31947 32.0686 2.93139 32.6805 3.68404 33.064C4.53968 33.5 5.65979 33.5 7.9 33.5Z" stroke="#CB29BE" stroke-width="2"/>
</svg>
