<svg width="42" height="25" viewBox="0 0 42 25" fill="none" xmlns="http://www.w3.org/2000/svg">
<rect x="0.5" y="0.5625" width="41" height="24" rx="4" fill="#4CAF50"/>
<path d="M9.316 16.5625V8.1625H10.852L14.8 14.0785V8.1625H16.336V16.5625H14.8L10.852 10.6585V16.5625H9.316ZM20.5804 16.7065C19.9804 16.7065 19.4484 16.5785 18.9844 16.3225C18.5204 16.0665 18.1564 15.7065 17.8924 15.2425C17.6284 14.7785 17.4964 14.2425 17.4964 13.6345C17.4964 13.0185 17.6244 12.4705 17.8804 11.9905C18.1444 11.5105 18.5044 11.1385 18.9604 10.8745C19.4244 10.6025 19.9684 10.4665 20.5924 10.4665C21.1764 10.4665 21.6924 10.5945 22.1404 10.8505C22.5884 11.1065 22.9364 11.4585 23.1844 11.9065C23.4404 12.3465 23.5684 12.8385 23.5684 13.3825C23.5684 13.4705 23.5644 13.5625 23.5564 13.6585C23.5564 13.7545 23.5524 13.8545 23.5444 13.9585H19.0204C19.0524 14.4225 19.2124 14.7865 19.5004 15.0505C19.7964 15.3145 20.1524 15.4465 20.5684 15.4465C20.8804 15.4465 21.1404 15.3785 21.3484 15.2425C21.5644 15.0985 21.7244 14.9145 21.8284 14.6905H23.3884C23.2764 15.0665 23.0884 15.4105 22.8244 15.7225C22.5684 16.0265 22.2484 16.2665 21.8644 16.4425C21.4884 16.6185 21.0604 16.7065 20.5804 16.7065ZM20.5924 11.7145C20.2164 11.7145 19.8844 11.8225 19.5964 12.0385C19.3084 12.2465 19.1244 12.5665 19.0444 12.9985H22.0084C21.9844 12.6065 21.8404 12.2945 21.5764 12.0625C21.3124 11.8305 20.9844 11.7145 20.5924 11.7145ZM25.5499 16.5625L23.8099 10.6105H25.3339L26.3659 14.8945L27.5659 10.6105H29.2699L30.4699 14.8945L31.5139 10.6105H33.0379L31.2859 16.5625H29.6899L28.4179 12.1105L27.1459 16.5625H25.5499Z" fill="white"/>
</svg>
