<svg width="1032" height="277" viewBox="0 0 1032 277" fill="none" xmlns="http://www.w3.org/2000/svg">
<path opacity="0.5" d="M3.42226 8.768H7.59426V10H1.23826V9.216L4.26226 5.786C5.29826 4.652 5.95626 3.952 5.95626 3.098C5.95626 2.314 5.42426 1.614 4.27626 1.614C3.24026 1.614 2.56826 2.216 2.45626 3.238H0.972258C1.02826 1.474 2.34426 0.312 4.31826 0.312C6.37626 0.312 7.46826 1.572 7.46826 3.112C7.46826 4.176 6.81026 4.974 5.50826 6.416L3.42226 8.768ZM11.3068 3.994C13.2668 3.994 14.5968 5.24 14.5968 6.99C14.5968 8.824 13.2528 10.168 11.2788 10.168C9.37477 10.168 8.08677 9.104 7.80677 7.41H9.27677C9.52877 8.334 10.2148 8.88 11.2788 8.88C12.3988 8.88 13.1828 8.096 13.1828 7.032C13.1828 5.996 12.3848 5.282 11.1248 5.282H8.28277V0.48H14.1908V1.824H9.66877V3.994H11.3068ZM19.5369 0.312C22.1969 0.312 23.7369 2.356 23.7369 5.24C23.7369 8.11 22.1969 10.168 19.5369 10.168C16.8769 10.168 15.3229 8.11 15.3229 5.24C15.3229 2.356 16.8769 0.312 19.5369 0.312ZM19.5369 8.81C21.3009 8.81 22.2109 7.298 22.2109 5.24C22.2109 3.182 21.3009 1.67 19.5369 1.67C17.7449 1.67 16.8349 3.182 16.8349 5.24C16.8349 7.298 17.7449 8.81 19.5369 8.81Z" fill="#B1B1B1"/>
<path opacity="0.5" d="M3.43105 57.1679H7.60305V58.3999H1.24705V57.6159L4.27105 54.1859C5.30705 53.0519 5.96505 52.3519 5.96505 51.4979C5.96505 50.7139 5.43305 50.0139 4.28505 50.0139C3.24905 50.0139 2.57705 50.6159 2.46505 51.6379H0.981047C1.03705 49.8739 2.35305 48.7119 4.32705 48.7119C6.38505 48.7119 7.47705 49.9719 7.47705 51.5119C7.47705 52.5759 6.81905 53.3739 5.51705 54.8159L3.43105 57.1679ZM12.3193 48.7119C14.9793 48.7119 16.5193 50.7559 16.5193 53.6399C16.5193 56.5099 14.9793 58.5679 12.3193 58.5679C9.6593 58.5679 8.1053 56.5099 8.1053 53.6399C8.1053 50.7559 9.6593 48.7119 12.3193 48.7119ZM12.3193 57.2099C14.0833 57.2099 14.9933 55.6979 14.9933 53.6399C14.9933 51.5819 14.0833 50.0699 12.3193 50.0699C10.5273 50.0699 9.6173 51.5819 9.6173 53.6399C9.6173 55.6979 10.5273 57.2099 12.3193 57.2099ZM21.5281 48.7119C24.1881 48.7119 25.7281 50.7559 25.7281 53.6399C25.7281 56.5099 24.1881 58.5679 21.5281 58.5679C18.8681 58.5679 17.3141 56.5099 17.3141 53.6399C17.3141 50.7559 18.8681 48.7119 21.5281 48.7119ZM21.5281 57.2099C23.2921 57.2099 24.2021 55.6979 24.2021 53.6399C24.2021 51.5819 23.2921 50.0699 21.5281 50.0699C19.7361 50.0699 18.8261 51.5819 18.8261 53.6399C18.8261 55.6979 19.7361 57.2099 21.5281 57.2099Z" fill="#B1B1B1"/>
<path opacity="0.5" d="M4.78065 105.568H7.17465V106.8H0.720649V105.568H3.28265V98.9318L0.860649 99.7858V98.3998L3.92665 97.2798H4.78065V105.568ZM10.6564 100.794C12.6164 100.794 13.9464 102.04 13.9464 103.79C13.9464 105.624 12.6024 106.968 10.6284 106.968C8.72438 106.968 7.43638 105.904 7.15638 104.21H8.62638C8.87838 105.134 9.56438 105.68 10.6284 105.68C11.7484 105.68 12.5324 104.896 12.5324 103.832C12.5324 102.796 11.7344 102.082 10.4744 102.082H7.63238V97.2798H13.5404V98.6238H9.01838V100.794H10.6564ZM18.8865 97.1118C21.5465 97.1118 23.0865 99.1558 23.0865 102.04C23.0865 104.91 21.5465 106.968 18.8865 106.968C16.2265 106.968 14.6725 104.91 14.6725 102.04C14.6725 99.1558 16.2265 97.1118 18.8865 97.1118ZM18.8865 105.61C20.6505 105.61 21.5605 104.098 21.5605 102.04C21.5605 99.9818 20.6505 98.4698 18.8865 98.4698C17.0945 98.4698 16.1845 99.9818 16.1845 102.04C16.1845 104.098 17.0945 105.61 18.8865 105.61Z" fill="#B1B1B1"/>
<path opacity="0.5" d="M5.05604 153.968H7.45004V155.2H0.996039V153.968H3.55804V147.332L1.13604 148.186V146.8L4.20204 145.68H5.05604V153.968ZM11.4023 145.512C14.0623 145.512 15.6023 147.556 15.6023 150.44C15.6023 153.31 14.0623 155.368 11.4023 155.368C8.7423 155.368 7.1883 153.31 7.1883 150.44C7.1883 147.556 8.7423 145.512 11.4023 145.512ZM11.4023 154.01C13.1663 154.01 14.0763 152.498 14.0763 150.44C14.0763 148.382 13.1663 146.87 11.4023 146.87C9.6103 146.87 8.7003 148.382 8.7003 150.44C8.7003 152.498 9.6103 154.01 11.4023 154.01ZM20.6111 145.512C23.2711 145.512 24.8111 147.556 24.8111 150.44C24.8111 153.31 23.2711 155.368 20.6111 155.368C17.9511 155.368 16.3971 153.31 16.3971 150.44C16.3971 147.556 17.9511 145.512 20.6111 145.512ZM20.6111 154.01C22.3751 154.01 23.2851 152.498 23.2851 150.44C23.2851 148.382 22.3751 146.87 20.6111 146.87C18.8191 146.87 17.9091 148.382 17.9091 150.44C17.9091 152.498 18.8191 154.01 20.6111 154.01Z" fill="#B1B1B1"/>
<path opacity="0.5" d="M4.48752 197.594C6.44752 197.594 7.77752 198.84 7.77752 200.59C7.77752 202.424 6.43352 203.768 4.45952 203.768C2.55552 203.768 1.26752 202.704 0.987516 201.01H2.45752C2.70952 201.934 3.39552 202.48 4.45952 202.48C5.57952 202.48 6.36352 201.696 6.36352 200.632C6.36352 199.596 5.56552 198.882 4.30552 198.882H1.46352V194.08H7.37152V195.424H2.84952V197.594H4.48752ZM12.7177 193.912C15.3777 193.912 16.9177 195.956 16.9177 198.84C16.9177 201.71 15.3777 203.768 12.7177 203.768C10.0577 203.768 8.50366 201.71 8.50366 198.84C8.50366 195.956 10.0577 193.912 12.7177 193.912ZM12.7177 202.41C14.4817 202.41 15.3917 200.898 15.3917 198.84C15.3917 196.782 14.4817 195.27 12.7177 195.27C10.9257 195.27 10.0157 196.782 10.0157 198.84C10.0157 200.898 10.9257 202.41 12.7177 202.41Z" fill="#B1B1B1"/>
<path opacity="0.5" d="M5.51559 242.312C8.17559 242.312 9.71559 244.356 9.71559 247.24C9.71559 250.11 8.17559 252.168 5.51559 252.168C2.85559 252.168 1.30159 250.11 1.30159 247.24C1.30159 244.356 2.85559 242.312 5.51559 242.312ZM5.51559 250.81C7.27959 250.81 8.18959 249.298 8.18959 247.24C8.18959 245.182 7.27959 243.67 5.51559 243.67C3.72359 243.67 2.81359 245.182 2.81359 247.24C2.81359 249.298 3.72359 250.81 5.51559 250.81Z" fill="#B1B1B1"/>
<path d="M57 42.3335H1032" stroke="#1E1E1E" stroke-width="0.5"/>
<path d="M57 84.6665H1032" stroke="#1E1E1E" stroke-width="0.5"/>
<path d="M57 127H1032" stroke="#1E1E1E" stroke-width="0.5"/>
<path d="M57 169.333H1032" stroke="#1E1E1E" stroke-width="0.5"/>
<path d="M57 211.667H1032" stroke="#1E1E1E" stroke-width="0.5"/>
<path d="M57 254H1032" stroke="#1E1E1E" stroke-width="0.5"/>
<rect width="72.0833" height="42.4096" transform="translate(57 211.59)" fill="black"/>
<path d="M89.0492 242.861C89.5519 242.861 89.9273 242.747 90.1751 242.521C90.43 242.287 90.5575 241.99 90.5575 241.629V241.554C90.5575 241.165 90.4336 240.874 90.1857 240.683C89.945 240.485 89.6263 240.386 89.2297 240.386C88.8473 240.386 88.5358 240.471 88.295 240.641C88.0542 240.804 87.8559 241.027 87.7001 241.31L87.0416 240.8C87.1336 240.651 87.2434 240.506 87.3709 240.365C87.5054 240.216 87.6612 240.085 87.8382 239.972C88.0153 239.858 88.2206 239.766 88.4543 239.695C88.688 239.625 88.9536 239.589 89.251 239.589C89.5626 239.589 89.8564 239.632 90.1326 239.717C90.4088 239.794 90.646 239.915 90.8443 240.078C91.0497 240.234 91.209 240.428 91.3223 240.662C91.4427 240.896 91.5029 241.161 91.5029 241.459C91.5029 241.699 91.4639 241.915 91.386 242.107C91.3152 242.298 91.2161 242.464 91.0886 242.606C90.9612 242.747 90.8089 242.868 90.6319 242.967C90.4619 243.066 90.2778 243.14 90.0795 243.19V243.233C90.2778 243.275 90.469 243.346 90.6531 243.445C90.8443 243.537 91.0107 243.661 91.1524 243.817C91.3011 243.965 91.4179 244.15 91.5029 244.369C91.5949 244.582 91.641 244.826 91.641 245.102C91.641 245.421 91.5808 245.715 91.4604 245.984C91.34 246.246 91.1701 246.472 90.9505 246.663C90.731 246.848 90.4655 246.993 90.1539 247.099C89.8423 247.205 89.4988 247.258 89.1235 247.258C88.8049 247.258 88.5216 247.223 88.2737 247.152C88.0259 247.081 87.8064 246.986 87.6152 246.865C87.424 246.745 87.254 246.61 87.1053 246.462C86.9637 246.313 86.8362 246.157 86.7229 245.994L87.3921 245.484C87.4842 245.633 87.5833 245.768 87.6895 245.888C87.8028 246.008 87.9268 246.111 88.0613 246.196C88.1958 246.281 88.3481 246.348 88.5181 246.398C88.688 246.44 88.8863 246.462 89.1129 246.462C89.6369 246.462 90.0335 246.345 90.3026 246.111C90.5717 245.87 90.7062 245.53 90.7062 245.091V245.006C90.7062 244.567 90.5717 244.231 90.3026 243.997C90.0335 243.757 89.6369 243.636 89.1129 243.636H88.2419V242.861H89.0492ZM98.6616 247.131H93.7967V246.217L96.2185 243.987C96.5655 243.668 96.8558 243.332 97.0895 242.978C97.3232 242.616 97.4401 242.255 97.4401 241.894V241.767C97.4401 241.356 97.3268 241.023 97.1002 240.768C96.8735 240.513 96.5301 240.386 96.0698 240.386C95.8432 240.386 95.6449 240.418 95.475 240.481C95.305 240.545 95.1563 240.634 95.0288 240.747C94.9084 240.86 94.8058 240.995 94.7208 241.151C94.6429 241.299 94.5792 241.462 94.5296 241.639L93.7329 241.331C93.8037 241.112 93.8993 240.899 94.0197 240.694C94.1472 240.481 94.303 240.294 94.4871 240.131C94.6783 239.968 94.9049 239.837 95.1669 239.738C95.436 239.639 95.7511 239.589 96.1123 239.589C96.4734 239.589 96.7957 239.642 97.0789 239.748C97.3622 239.855 97.5994 240.003 97.7906 240.195C97.9818 240.386 98.127 240.612 98.2261 240.874C98.3323 241.136 98.3854 241.427 98.3854 241.745C98.3854 242.036 98.3429 242.305 98.258 242.553C98.1801 242.801 98.0703 243.038 97.9287 243.264C97.7871 243.484 97.6136 243.7 97.4082 243.912C97.2099 244.125 96.9939 244.337 96.7602 244.55L94.7633 246.345H98.6616V247.131Z" fill="white"/>
<rect width="72.0833" height="72" transform="translate(139.083 182)" fill="black"/>
<path d="M172.343 247.541V246.085H168.764V245.299L171.865 240.126H173.193V245.342H174.266V246.085H173.193V247.541H172.343ZM169.603 245.342H172.343V240.817H172.29L169.603 245.342ZM180.373 240.912H177.123L176.91 243.738H176.985C177.162 243.49 177.36 243.292 177.58 243.143C177.806 242.994 178.114 242.92 178.504 242.92C178.822 242.92 179.116 242.973 179.385 243.079C179.654 243.185 179.888 243.338 180.086 243.536C180.285 243.727 180.437 243.964 180.543 244.248C180.656 244.531 180.713 244.853 180.713 245.214C180.713 245.575 180.656 245.908 180.543 246.213C180.43 246.51 180.263 246.769 180.044 246.988C179.831 247.201 179.569 247.367 179.258 247.487C178.953 247.608 178.606 247.668 178.217 247.668C177.905 247.668 177.629 247.633 177.388 247.562C177.155 247.491 176.946 247.395 176.762 247.275C176.578 247.155 176.415 247.02 176.273 246.871C176.138 246.723 176.015 246.567 175.901 246.404L176.57 245.894C176.663 246.043 176.758 246.177 176.857 246.298C176.963 246.418 177.077 246.521 177.197 246.606C177.325 246.691 177.47 246.758 177.633 246.808C177.796 246.85 177.99 246.871 178.217 246.871C178.727 246.871 179.113 246.737 179.375 246.468C179.637 246.199 179.768 245.82 179.768 245.331V245.225C179.768 244.736 179.637 244.357 179.375 244.088C179.113 243.819 178.727 243.685 178.217 243.685C177.877 243.685 177.608 243.748 177.41 243.876C177.218 243.996 177.045 244.141 176.889 244.311L176.135 244.205L176.4 240.126H180.373V240.912Z" fill="white"/>
<rect width="72.0833" height="72" transform="translate(221.167 182)" fill="black"/>
<path d="M254.427 247.541V246.085H250.847V245.299L253.949 240.126H255.277V245.342H256.349V246.085H255.277V247.541H254.427ZM251.686 245.342H254.427V240.817H254.374L251.686 245.342ZM262.457 240.912H259.206L258.994 243.738H259.068C259.245 243.49 259.443 243.292 259.663 243.143C259.89 242.994 260.198 242.92 260.587 242.92C260.906 242.92 261.2 242.973 261.469 243.079C261.738 243.185 261.971 243.338 262.17 243.536C262.368 243.727 262.52 243.964 262.626 244.248C262.74 244.531 262.796 244.853 262.796 245.214C262.796 245.575 262.74 245.908 262.626 246.213C262.513 246.51 262.347 246.769 262.127 246.988C261.915 247.201 261.653 247.367 261.341 247.487C261.037 247.608 260.69 247.668 260.3 247.668C259.989 247.668 259.712 247.633 259.472 247.562C259.238 247.491 259.029 247.395 258.845 247.275C258.661 247.155 258.498 247.02 258.356 246.871C258.222 246.723 258.098 246.567 257.985 246.404L258.654 245.894C258.746 246.043 258.841 246.177 258.941 246.298C259.047 246.418 259.16 246.521 259.28 246.606C259.408 246.691 259.553 246.758 259.716 246.808C259.879 246.85 260.074 246.871 260.3 246.871C260.81 246.871 261.196 246.737 261.458 246.468C261.72 246.199 261.851 245.82 261.851 245.331V245.225C261.851 244.736 261.72 244.357 261.458 244.088C261.196 243.819 260.81 243.685 260.3 243.685C259.96 243.685 259.691 243.748 259.493 243.876C259.302 243.996 259.128 244.141 258.972 244.311L258.218 244.205L258.484 240.126H262.457V240.912Z" fill="white"/>
<rect width="72.0833" height="111" transform="translate(303.25 143)" fill="black"/>
<path d="M335.724 247.668C335.342 247.668 334.995 247.604 334.683 247.477C334.379 247.342 334.117 247.155 333.897 246.914C333.685 246.666 333.522 246.365 333.408 246.011C333.295 245.657 333.238 245.26 333.238 244.821C333.238 244.269 333.32 243.752 333.483 243.27C333.646 242.782 333.855 242.339 334.109 241.943C334.371 241.539 334.658 241.185 334.97 240.88C335.281 240.569 335.586 240.317 335.883 240.126H337.031C336.634 240.417 336.28 240.7 335.968 240.976C335.657 241.252 335.384 241.543 335.15 241.847C334.917 242.144 334.718 242.467 334.556 242.814C334.393 243.154 334.262 243.54 334.163 243.971L334.216 243.993C334.393 243.688 334.619 243.437 334.896 243.239C335.179 243.033 335.547 242.931 336 242.931C336.319 242.931 336.613 242.984 336.882 243.09C337.151 243.196 337.381 243.348 337.572 243.547C337.764 243.745 337.912 243.986 338.018 244.269C338.132 244.552 338.188 244.867 338.188 245.214C338.188 245.575 338.128 245.908 338.008 246.213C337.895 246.51 337.728 246.769 337.509 246.988C337.296 247.201 337.038 247.367 336.733 247.487C336.429 247.608 336.092 247.668 335.724 247.668ZM335.713 246.893C336.202 246.893 336.581 246.758 336.85 246.489C337.126 246.22 337.264 245.834 337.264 245.331V245.246C337.264 244.743 337.126 244.357 336.85 244.088C336.581 243.819 336.202 243.685 335.713 243.685C335.225 243.685 334.842 243.819 334.566 244.088C334.297 244.357 334.163 244.743 334.163 245.246V245.331C334.163 245.834 334.297 246.22 334.566 246.489C334.842 246.758 335.225 246.893 335.713 246.893ZM341.109 247.541L343.945 240.891H340.78V242.272H339.983V240.126H344.848V240.912L342.065 247.541H341.109Z" fill="white"/>
<rect width="72.0833" height="111" transform="translate(385.333 143)" fill="black"/>
<path d="M417.807 247.668C417.425 247.668 417.078 247.604 416.766 247.477C416.462 247.342 416.2 247.155 415.98 246.914C415.768 246.666 415.605 246.365 415.492 246.011C415.378 245.657 415.322 245.26 415.322 244.821C415.322 244.269 415.403 243.752 415.566 243.27C415.729 242.782 415.938 242.339 416.193 241.943C416.455 241.539 416.742 241.185 417.053 240.88C417.365 240.569 417.669 240.317 417.967 240.126H419.114C418.717 240.417 418.363 240.7 418.052 240.976C417.74 241.252 417.467 241.543 417.234 241.847C417 242.144 416.802 242.467 416.639 242.814C416.476 243.154 416.345 243.54 416.246 243.971L416.299 243.993C416.476 243.688 416.703 243.437 416.979 243.239C417.262 243.033 417.63 242.931 418.084 242.931C418.402 242.931 418.696 242.984 418.965 243.09C419.234 243.196 419.464 243.348 419.656 243.547C419.847 243.745 419.996 243.986 420.102 244.269C420.215 244.552 420.272 244.867 420.272 245.214C420.272 245.575 420.212 245.908 420.091 246.213C419.978 246.51 419.811 246.769 419.592 246.988C419.379 247.201 419.121 247.367 418.816 247.487C418.512 247.608 418.176 247.668 417.807 247.668ZM417.797 246.893C418.285 246.893 418.664 246.758 418.933 246.489C419.21 246.22 419.348 245.834 419.348 245.331V245.246C419.348 244.743 419.21 244.357 418.933 244.088C418.664 243.819 418.285 243.685 417.797 243.685C417.308 243.685 416.926 243.819 416.65 244.088C416.38 244.357 416.246 244.743 416.246 245.246V245.331C416.246 245.834 416.38 246.22 416.65 246.489C416.926 246.758 417.308 246.893 417.797 246.893ZM423.192 247.541L426.028 240.891H422.863V242.272H422.066V240.126H426.931V240.912L424.148 247.541H423.192Z" fill="white"/>
<rect width="72.0833" height="81" transform="translate(467.417 173)" fill="black"/>
<path d="M501.983 240.912H498.733L498.52 243.738H498.595C498.772 243.49 498.97 243.292 499.19 243.143C499.416 242.994 499.724 242.92 500.114 242.92C500.432 242.92 500.726 242.973 500.995 243.079C501.265 243.185 501.498 243.338 501.697 243.536C501.895 243.727 502.047 243.964 502.153 244.248C502.267 244.531 502.323 244.853 502.323 245.214C502.323 245.575 502.267 245.908 502.153 246.213C502.04 246.51 501.874 246.769 501.654 246.988C501.442 247.201 501.18 247.367 500.868 247.487C500.563 247.608 500.216 247.668 499.827 247.668C499.515 247.668 499.239 247.633 498.998 247.562C498.765 247.491 498.556 247.395 498.372 247.275C498.188 247.155 498.025 247.02 497.883 246.871C497.749 246.723 497.625 246.567 497.511 246.404L498.181 245.894C498.273 246.043 498.368 246.177 498.467 246.298C498.574 246.418 498.687 246.521 498.807 246.606C498.935 246.691 499.08 246.758 499.243 246.808C499.406 246.85 499.6 246.871 499.827 246.871C500.337 246.871 500.723 246.737 500.985 246.468C501.247 246.199 501.378 245.82 501.378 245.331V245.225C501.378 244.736 501.247 244.357 500.985 244.088C500.723 243.819 500.337 243.685 499.827 243.685C499.487 243.685 499.218 243.748 499.02 243.876C498.829 243.996 498.655 244.141 498.499 244.311L497.745 244.205L498.011 240.126H501.983V240.912ZM506.189 243.27C506.692 243.27 507.067 243.157 507.315 242.931C507.57 242.697 507.697 242.399 507.697 242.038V241.964C507.697 241.574 507.573 241.284 507.326 241.093C507.085 240.895 506.766 240.795 506.37 240.795C505.987 240.795 505.676 240.88 505.435 241.05C505.194 241.213 504.996 241.436 504.84 241.72L504.181 241.21C504.274 241.061 504.383 240.916 504.511 240.774C504.645 240.625 504.801 240.494 504.978 240.381C505.155 240.268 505.361 240.176 505.594 240.105C505.828 240.034 506.093 239.999 506.391 239.999C506.702 239.999 506.996 240.041 507.273 240.126C507.549 240.204 507.786 240.325 507.984 240.487C508.19 240.643 508.349 240.838 508.462 241.072C508.583 241.305 508.643 241.571 508.643 241.868C508.643 242.109 508.604 242.325 508.526 242.516C508.455 242.707 508.356 242.874 508.229 243.015C508.101 243.157 507.949 243.277 507.772 243.377C507.602 243.476 507.418 243.55 507.219 243.6V243.642C507.418 243.685 507.609 243.755 507.793 243.855C507.984 243.947 508.151 244.071 508.292 244.226C508.441 244.375 508.558 244.559 508.643 244.779C508.735 244.991 508.781 245.236 508.781 245.512C508.781 245.83 508.721 246.124 508.6 246.393C508.48 246.655 508.31 246.882 508.09 247.073C507.871 247.257 507.605 247.402 507.294 247.509C506.982 247.615 506.639 247.668 506.263 247.668C505.945 247.668 505.662 247.633 505.414 247.562C505.166 247.491 504.946 247.395 504.755 247.275C504.564 247.155 504.394 247.02 504.245 246.871C504.104 246.723 503.976 246.567 503.863 246.404L504.532 245.894C504.624 246.043 504.723 246.177 504.829 246.298C504.943 246.418 505.067 246.521 505.201 246.606C505.336 246.691 505.488 246.758 505.658 246.808C505.828 246.85 506.026 246.871 506.253 246.871C506.777 246.871 507.173 246.754 507.442 246.521C507.712 246.28 507.846 245.94 507.846 245.501V245.416C507.846 244.977 507.712 244.641 507.442 244.407C507.173 244.166 506.777 244.046 506.253 244.046H505.382V243.27H506.189Z" fill="white"/>
<rect width="72.0833" height="68" transform="translate(549.5 186)" fill="black"/>
<path d="M582.76 247.541V246.085H579.18V245.299L582.282 240.126H583.61V245.342H584.683V246.085H583.61V247.541H582.76ZM580.02 245.342H582.76V240.817H582.707L580.02 245.342ZM588.272 243.27C588.775 243.27 589.151 243.157 589.398 242.931C589.653 242.697 589.781 242.399 589.781 242.038V241.964C589.781 241.574 589.657 241.284 589.409 241.093C589.168 240.895 588.85 240.795 588.453 240.795C588.071 240.795 587.759 240.88 587.518 241.05C587.277 241.213 587.079 241.436 586.923 241.72L586.265 241.21C586.357 241.061 586.467 240.916 586.594 240.774C586.729 240.625 586.884 240.494 587.061 240.381C587.239 240.268 587.444 240.176 587.678 240.105C587.911 240.034 588.177 239.999 588.474 239.999C588.786 239.999 589.08 240.041 589.356 240.126C589.632 240.204 589.869 240.325 590.068 240.487C590.273 240.643 590.432 240.838 590.546 241.072C590.666 241.305 590.726 241.571 590.726 241.868C590.726 242.109 590.687 242.325 590.609 242.516C590.538 242.707 590.439 242.874 590.312 243.015C590.184 243.157 590.032 243.277 589.855 243.377C589.685 243.476 589.501 243.55 589.303 243.6V243.642C589.501 243.685 589.692 243.755 589.876 243.855C590.068 243.947 590.234 244.071 590.376 244.226C590.524 244.375 590.641 244.559 590.726 244.779C590.818 244.991 590.864 245.236 590.864 245.512C590.864 245.83 590.804 246.124 590.684 246.393C590.563 246.655 590.393 246.882 590.174 247.073C589.954 247.257 589.689 247.402 589.377 247.509C589.066 247.615 588.722 247.668 588.347 247.668C588.028 247.668 587.745 247.633 587.497 247.562C587.249 247.491 587.03 247.395 586.838 247.275C586.647 247.155 586.477 247.02 586.329 246.871C586.187 246.723 586.059 246.567 585.946 246.404L586.615 245.894C586.707 246.043 586.807 246.177 586.913 246.298C587.026 246.418 587.15 246.521 587.285 246.606C587.419 246.691 587.571 246.758 587.741 246.808C587.911 246.85 588.11 246.871 588.336 246.871C588.86 246.871 589.257 246.754 589.526 246.521C589.795 246.28 589.929 245.94 589.929 245.501V245.416C589.929 244.977 589.795 244.641 589.526 244.407C589.257 244.166 588.86 244.046 588.336 244.046H587.465V243.27H588.272Z" fill="white"/>
<rect width="72.0833" height="174" transform="translate(631.583 80)" fill="black"/>
<path d="M664.047 247.668C663.622 247.668 663.25 247.615 662.931 247.509C662.613 247.395 662.344 247.243 662.124 247.052C661.912 246.861 661.749 246.634 661.636 246.372C661.529 246.11 661.476 245.827 661.476 245.522C661.476 245.012 661.614 244.609 661.891 244.311C662.167 244.014 662.528 243.805 662.974 243.685V243.6C662.584 243.465 662.273 243.249 662.039 242.952C661.813 242.647 661.699 242.283 661.699 241.858C661.699 241.291 661.905 240.841 662.315 240.509C662.726 240.169 663.303 239.999 664.047 239.999C664.79 239.999 665.367 240.169 665.778 240.509C666.189 240.841 666.394 241.291 666.394 241.858C666.394 242.283 666.277 242.647 666.044 242.952C665.817 243.249 665.509 243.465 665.12 243.6V243.685C665.566 243.805 665.927 244.014 666.203 244.311C666.479 244.609 666.617 245.012 666.617 245.522C666.617 245.827 666.561 246.11 666.447 246.372C666.341 246.634 666.178 246.861 665.959 247.052C665.746 247.243 665.481 247.395 665.162 247.509C664.843 247.615 664.472 247.668 664.047 247.668ZM664.047 246.893C664.564 246.893 664.964 246.779 665.247 246.553C665.53 246.319 665.672 245.99 665.672 245.565V245.342C665.672 244.917 665.53 244.591 665.247 244.364C664.964 244.131 664.564 244.014 664.047 244.014C663.53 244.014 663.13 244.131 662.846 244.364C662.563 244.591 662.422 244.917 662.422 245.342V245.565C662.422 245.99 662.563 246.319 662.846 246.553C663.13 246.779 663.53 246.893 664.047 246.893ZM664.047 243.27C664.514 243.27 664.868 243.171 665.109 242.973C665.35 242.775 665.47 242.484 665.47 242.102V241.943C665.47 241.56 665.35 241.27 665.109 241.072C664.868 240.873 664.514 240.774 664.047 240.774C663.579 240.774 663.225 240.873 662.985 241.072C662.744 241.27 662.623 241.56 662.623 241.943V242.102C662.623 242.484 662.744 242.775 662.985 242.973C663.225 243.171 663.579 243.27 664.047 243.27ZM673.245 242.846C673.245 243.398 673.164 243.918 673.001 244.407C672.838 244.889 672.625 245.331 672.363 245.735C672.108 246.131 671.825 246.485 671.514 246.797C671.202 247.101 670.897 247.349 670.6 247.541H669.453C669.849 247.25 670.204 246.967 670.515 246.691C670.827 246.415 671.099 246.128 671.333 245.83C671.567 245.526 671.765 245.204 671.928 244.864C672.091 244.517 672.222 244.127 672.321 243.695L672.268 243.674C672.091 243.979 671.861 244.233 671.577 244.439C671.301 244.637 670.936 244.736 670.483 244.736C670.165 244.736 669.871 244.683 669.602 244.577C669.332 244.471 669.102 244.318 668.911 244.12C668.72 243.922 668.568 243.685 668.454 243.409C668.348 243.125 668.295 242.807 668.295 242.453C668.295 242.091 668.352 241.762 668.465 241.465C668.585 241.16 668.752 240.902 668.964 240.689C669.184 240.47 669.442 240.3 669.74 240.179C670.044 240.059 670.384 239.999 670.759 239.999C671.142 239.999 671.485 240.066 671.79 240.201C672.101 240.328 672.363 240.516 672.576 240.764C672.795 241.004 672.962 241.302 673.075 241.656C673.188 242.01 673.245 242.406 673.245 242.846ZM670.77 243.982C671.259 243.982 671.638 243.848 671.907 243.578C672.183 243.309 672.321 242.923 672.321 242.421V242.336C672.321 241.833 672.183 241.447 671.907 241.178C671.638 240.909 671.259 240.774 670.77 240.774C670.281 240.774 669.899 240.909 669.623 241.178C669.354 241.447 669.219 241.833 669.219 242.336V242.421C669.219 242.923 669.354 243.309 669.623 243.578C669.899 243.848 670.281 243.982 670.77 243.982Z" fill="white"/>
<rect width="72.0833" height="121" transform="translate(713.667 133)" fill="black"/>
<path d="M744.802 247.541L747.639 240.891H744.473V242.272H743.676V240.126H748.541V240.912L745.758 247.541H744.802ZM750.601 247.541V246.754H752.673V240.785H752.598L750.729 242.527L750.208 241.964L752.174 240.126H753.565V246.754H755.477V247.541H750.601Z" fill="white"/>
<rect width="72.0833" height="250" transform="translate(795.75 4)" fill="black"/>
<path d="M822.6 247.541V246.754H824.671V240.785H824.597L822.728 242.527L822.207 241.964L824.172 240.126H825.564V246.754H827.476V247.541H822.6ZM831.575 247.668C830.69 247.668 830.042 247.332 829.631 246.659C829.228 245.986 829.026 245.044 829.026 243.833C829.026 242.622 829.228 241.681 829.631 241.008C830.042 240.335 830.69 239.999 831.575 239.999C832.46 239.999 833.105 240.335 833.508 241.008C833.919 241.681 834.124 242.622 834.124 243.833C834.124 245.044 833.919 245.986 833.508 246.659C833.105 247.332 832.46 247.668 831.575 247.668ZM831.575 246.893C831.866 246.893 832.113 246.832 832.319 246.712C832.524 246.592 832.69 246.422 832.818 246.202C832.945 245.983 833.037 245.724 833.094 245.427C833.158 245.129 833.19 244.8 833.19 244.439V243.228C833.19 242.867 833.158 242.537 833.094 242.24C833.037 241.943 832.945 241.684 832.818 241.465C832.69 241.245 832.524 241.075 832.319 240.955C832.113 240.834 831.866 240.774 831.575 240.774C831.285 240.774 831.037 240.834 830.832 240.955C830.626 241.075 830.46 241.245 830.332 241.465C830.205 241.684 830.109 241.943 830.046 242.24C829.989 242.537 829.961 242.867 829.961 243.228V244.439C829.961 244.8 829.989 245.129 830.046 245.427C830.109 245.724 830.205 245.983 830.332 246.202C830.46 246.422 830.626 246.592 830.832 246.712C831.037 246.832 831.285 246.893 831.575 246.893ZM840.773 242.846C840.773 243.398 840.692 243.918 840.529 244.407C840.366 244.889 840.154 245.331 839.892 245.735C839.637 246.131 839.354 246.485 839.042 246.797C838.73 247.101 838.426 247.349 838.128 247.541H836.981C837.378 247.25 837.732 246.967 838.043 246.691C838.355 246.415 838.628 246.128 838.861 245.83C839.095 245.526 839.293 245.204 839.456 244.864C839.619 244.517 839.75 244.127 839.849 243.695L839.796 243.674C839.619 243.979 839.389 244.233 839.106 244.439C838.829 244.637 838.465 244.736 838.012 244.736C837.693 244.736 837.399 244.683 837.13 244.577C836.861 244.471 836.631 244.318 836.44 244.12C836.248 243.922 836.096 243.685 835.983 243.409C835.877 243.125 835.823 242.807 835.823 242.453C835.823 242.091 835.88 241.762 835.993 241.465C836.114 241.16 836.28 240.902 836.493 240.689C836.712 240.47 836.971 240.3 837.268 240.179C837.573 240.059 837.912 239.999 838.288 239.999C838.67 239.999 839.014 240.066 839.318 240.201C839.63 240.328 839.892 240.516 840.104 240.764C840.324 241.004 840.49 241.302 840.603 241.656C840.717 242.01 840.773 242.406 840.773 242.846ZM838.298 243.982C838.787 243.982 839.166 243.848 839.435 243.578C839.711 243.309 839.849 242.923 839.849 242.421V242.336C839.849 241.833 839.711 241.447 839.435 241.178C839.166 240.909 838.787 240.774 838.298 240.774C837.81 240.774 837.427 240.909 837.151 241.178C836.882 241.447 836.748 241.833 836.748 242.336V242.421C836.748 242.923 836.882 243.309 837.151 243.578C837.427 243.848 837.81 243.982 838.298 243.982Z" fill="white"/>
<rect width="72.0833" height="25" transform="translate(877.833 229)" fill="black"/>
<path d="M912.772 247.541H907.907V246.627L910.329 244.396C910.676 244.078 910.966 243.741 911.2 243.387C911.433 243.026 911.55 242.665 911.55 242.304V242.176C911.55 241.766 911.437 241.433 911.21 241.178C910.984 240.923 910.64 240.795 910.18 240.795C909.953 240.795 909.755 240.827 909.585 240.891C909.415 240.955 909.267 241.043 909.139 241.157C909.019 241.27 908.916 241.404 908.831 241.56C908.753 241.709 908.689 241.872 908.64 242.049L907.843 241.741C907.914 241.521 908.01 241.309 908.13 241.103C908.257 240.891 908.413 240.703 908.597 240.541C908.789 240.378 909.015 240.247 909.277 240.147C909.546 240.048 909.861 239.999 910.223 239.999C910.584 239.999 910.906 240.052 911.189 240.158C911.472 240.264 911.71 240.413 911.901 240.604C912.092 240.795 912.237 241.022 912.336 241.284C912.443 241.546 912.496 241.836 912.496 242.155C912.496 242.445 912.453 242.715 912.368 242.962C912.29 243.21 912.181 243.447 912.039 243.674C911.897 243.894 911.724 244.11 911.518 244.322C911.32 244.534 911.104 244.747 910.871 244.959L908.874 246.754H912.772V247.541ZM919.495 247.541H914.63V246.627L917.052 244.396C917.399 244.078 917.689 243.741 917.923 243.387C918.157 243.026 918.274 242.665 918.274 242.304V242.176C918.274 241.766 918.16 241.433 917.934 241.178C917.707 240.923 917.364 240.795 916.903 240.795C916.677 240.795 916.478 240.827 916.308 240.891C916.139 240.955 915.99 241.043 915.862 241.157C915.742 241.27 915.639 241.404 915.554 241.56C915.476 241.709 915.413 241.872 915.363 242.049L914.566 241.741C914.637 241.521 914.733 241.309 914.853 241.103C914.981 240.891 915.136 240.703 915.321 240.541C915.512 240.378 915.738 240.247 916 240.147C916.27 240.048 916.585 239.999 916.946 239.999C917.307 239.999 917.629 240.052 917.912 240.158C918.196 240.264 918.433 240.413 918.624 240.604C918.815 240.795 918.96 241.022 919.06 241.284C919.166 241.546 919.219 241.836 919.219 242.155C919.219 242.445 919.176 242.715 919.091 242.962C919.014 243.21 918.904 243.447 918.762 243.674C918.621 243.894 918.447 244.11 918.242 244.322C918.043 244.534 917.827 244.747 917.594 244.959L915.597 246.754H919.495V247.541Z" fill="white"/>
<rect width="72.0833" height="42.4096" transform="translate(959.917 211.59)" fill="#FFD0FE"/>
<path d="M991.966 242.861C992.469 242.861 992.844 242.747 993.092 242.521C993.347 242.287 993.474 241.99 993.474 241.629V241.554C993.474 241.165 993.35 240.874 993.103 240.683C992.862 240.485 992.543 240.386 992.147 240.386C991.764 240.386 991.453 240.471 991.212 240.641C990.971 240.804 990.773 241.027 990.617 241.31L989.958 240.8C990.051 240.651 990.16 240.506 990.288 240.365C990.422 240.216 990.578 240.085 990.755 239.972C990.932 239.858 991.138 239.766 991.371 239.695C991.605 239.625 991.87 239.589 992.168 239.589C992.479 239.589 992.773 239.632 993.049 239.717C993.326 239.794 993.563 239.915 993.761 240.078C993.967 240.234 994.126 240.428 994.239 240.662C994.36 240.896 994.42 241.161 994.42 241.459C994.42 241.699 994.381 241.915 994.303 242.107C994.232 242.298 994.133 242.464 994.005 242.606C993.878 242.747 993.726 242.868 993.549 242.967C993.379 243.066 993.195 243.14 992.996 243.19V243.233C993.195 243.275 993.386 243.346 993.57 243.445C993.761 243.537 993.928 243.661 994.069 243.817C994.218 243.965 994.335 244.15 994.42 244.369C994.512 244.582 994.558 244.826 994.558 245.102C994.558 245.421 994.498 245.715 994.377 245.984C994.257 246.246 994.087 246.472 993.867 246.663C993.648 246.848 993.382 246.993 993.071 247.099C992.759 247.205 992.416 247.258 992.04 247.258C991.722 247.258 991.438 247.223 991.191 247.152C990.943 247.081 990.723 246.986 990.532 246.865C990.341 246.745 990.171 246.61 990.022 246.462C989.881 246.313 989.753 246.157 989.64 245.994L990.309 245.484C990.401 245.633 990.5 245.768 990.606 245.888C990.72 246.008 990.844 246.111 990.978 246.196C991.113 246.281 991.265 246.348 991.435 246.398C991.605 246.44 991.803 246.462 992.03 246.462C992.554 246.462 992.95 246.345 993.219 246.111C993.489 245.87 993.623 245.53 993.623 245.091V245.006C993.623 244.567 993.489 244.231 993.219 243.997C992.95 243.757 992.554 243.636 992.03 243.636H991.159V242.861H991.966ZM1001.58 247.131H996.714V246.217L999.135 243.987C999.482 243.668 999.773 243.332 1000.01 242.978C1000.24 242.616 1000.36 242.255 1000.36 241.894V241.767C1000.36 241.356 1000.24 241.023 1000.02 240.768C999.79 240.513 999.447 240.386 998.987 240.386C998.76 240.386 998.562 240.418 998.392 240.481C998.222 240.545 998.073 240.634 997.946 240.747C997.825 240.86 997.723 240.995 997.638 241.151C997.56 241.299 997.496 241.462 997.446 241.639L996.65 241.331C996.721 241.112 996.816 240.899 996.937 240.694C997.064 240.481 997.22 240.294 997.404 240.131C997.595 239.968 997.822 239.837 998.084 239.738C998.353 239.639 998.668 239.589 999.029 239.589C999.39 239.589 999.713 239.642 999.996 239.748C1000.28 239.855 1000.52 240.003 1000.71 240.195C1000.9 240.386 1001.04 240.612 1001.14 240.874C1001.25 241.136 1001.3 241.427 1001.3 241.745C1001.3 242.036 1001.26 242.305 1001.17 242.553C1001.1 242.801 1000.99 243.038 1000.85 243.264C1000.7 243.484 1000.53 243.7 1000.33 243.912C1000.13 244.125 999.911 244.337 999.677 244.55L997.68 246.345H1001.58V247.131Z" fill="#121212"/>
<path opacity="0.5" d="M91.3772 266.48V272.486C91.3772 274.866 89.9632 276.168 87.7512 276.168C85.8192 276.168 84.4052 275.02 84.2512 273.046H85.7772C85.8892 274.18 86.7292 274.768 87.8492 274.768C89.0112 274.768 89.8512 273.942 89.8512 272.444V266.48H91.3772ZM99.5208 276L98.5408 273.718H93.8928L92.9128 276H91.3028L95.5168 266.48H96.9308L101.131 276H99.5208ZM94.4528 272.374H97.9668L96.2168 268.272L94.4528 272.374ZM108.579 266.48H110.077V276H108.873L103.259 269.28V276H101.747V266.48H102.909L108.579 273.34V266.48Z" fill="#B1B1B1"/>
<path opacity="0.5" d="M174.314 267.866H169.092V270.848H173.698V272.234H169.092V276H167.58V266.48H174.314V267.866ZM181.83 267.866H176.51V270.596H181.27V271.982H176.51V274.6H181.83V276H174.998V266.48H181.83V267.866ZM188.678 271.072C189.98 271.324 190.596 272.262 190.596 273.396C190.596 274.95 189.252 276 187.138 276H182.854V266.48H186.984C188.958 266.48 190.134 267.418 190.134 268.93C190.134 269.924 189.588 270.764 188.678 271.072ZM186.816 267.81H184.366V270.61H186.746C188.02 270.61 188.72 270.008 188.72 269.126C188.72 268.3 188.034 267.81 186.816 267.81ZM187.082 274.67C188.398 274.67 189.112 274.026 189.112 273.214C189.112 272.36 188.356 271.856 187.138 271.856H184.366V274.67H187.082Z" fill="#B1B1B1"/>
<path opacity="0.5" d="M255.748 266.48V276H254.25V269.798L251.422 274.39H250.484L247.628 269.756L247.656 276H246.144V266.48H247.236L250.946 272.528L254.656 266.48H255.748ZM264.605 276L263.625 273.718H258.977L257.997 276H256.387L260.601 266.48H262.015L266.215 276H264.605ZM259.537 272.374H263.051L261.301 268.272L259.537 272.374ZM273.005 276L270.541 272.78H268.343V276H266.831V266.48H270.653C272.781 266.48 274.321 267.712 274.321 269.63C274.321 271.044 273.481 272.094 272.193 272.542L274.853 276H273.005ZM268.343 267.866V271.394H270.597C271.871 271.394 272.837 270.722 272.837 269.63C272.837 268.538 271.871 267.866 270.597 267.866H268.343Z" fill="#B1B1B1"/>
<path opacity="0.5" d="M336.407 276L335.427 273.718H330.779L329.799 276H328.189L332.403 266.48H333.817L338.017 276H336.407ZM331.339 272.374H334.853L333.103 268.272L331.339 272.374ZM342.147 266.48C344.401 266.48 345.885 267.782 345.885 269.728C345.885 271.772 344.317 273.13 341.937 273.13H340.145V276H338.633V266.48H342.147ZM342.105 271.744C343.477 271.744 344.401 270.932 344.401 269.728C344.401 268.622 343.477 267.866 342.105 267.866H340.145V271.744H342.105ZM352.662 276L350.198 272.78H348V276H346.488V266.48H350.31C352.438 266.48 353.978 267.712 353.978 269.63C353.978 271.044 353.138 272.094 351.85 272.542L354.51 276H352.662ZM348 267.866V271.394H350.254C351.528 271.394 352.494 270.722 352.494 269.63C352.494 268.538 351.528 267.866 350.254 267.866H348Z" fill="#B1B1B1"/>
<path opacity="0.5" d="M419.102 266.48V276H417.604V269.798L414.776 274.39H413.838L410.982 269.756L411.01 276H409.498V266.48H410.59L414.3 272.528L418.01 266.48H419.102ZM427.959 276L426.979 273.718H422.331L421.351 276H419.741L423.955 266.48H425.369L429.569 276H427.959ZM422.891 272.374H426.405L424.655 268.272L422.891 272.374ZM435.057 266.48H436.723L432.873 272.752V276H431.347V272.752L427.497 266.48H429.163L432.103 271.296L435.057 266.48Z" fill="#B1B1B1"/>
<path opacity="0.5" d="M497.422 266.48V272.486C497.422 274.866 496.008 276.168 493.796 276.168C491.864 276.168 490.45 275.02 490.296 273.046H491.822C491.934 274.18 492.774 274.768 493.894 274.768C495.056 274.768 495.896 273.942 495.896 272.444V266.48H497.422ZM506.91 266.48V271.814C506.91 274.488 505.244 276.168 502.738 276.168C500.246 276.168 498.566 274.488 498.566 271.814V266.48H500.078V271.814C500.078 273.564 501.142 274.768 502.738 274.768C504.334 274.768 505.412 273.564 505.412 271.814V266.48H506.91ZM515.034 266.48H516.532V276H515.328L509.714 269.28V276H508.202V266.48H509.364L515.034 273.34V266.48Z" fill="#B1B1B1"/>
<path opacity="0.5" d="M579.916 266.48V272.486C579.916 274.866 578.502 276.168 576.29 276.168C574.358 276.168 572.944 275.02 572.79 273.046H574.316C574.428 274.18 575.268 274.768 576.388 274.768C577.55 274.768 578.39 273.942 578.39 272.444V266.48H579.916ZM589.404 266.48V271.814C589.404 274.488 587.738 276.168 585.232 276.168C582.74 276.168 581.06 274.488 581.06 271.814V266.48H582.572V271.814C582.572 273.564 583.636 274.768 585.232 274.768C586.828 274.768 587.906 273.564 587.906 271.814V266.48H589.404ZM592.208 274.6H597.29V276H590.696V266.48H592.208V274.6Z" fill="#B1B1B1"/>
<path opacity="0.5" d="M659.93 276L658.95 273.718H654.302L653.322 276H651.712L655.926 266.48H657.34L661.54 276H659.93ZM654.862 272.374H658.376L656.626 268.272L654.862 272.374ZM669.827 266.48V271.814C669.827 274.488 668.161 276.168 665.655 276.168C663.163 276.168 661.483 274.488 661.483 271.814V266.48H662.995V271.814C662.995 273.564 664.059 274.768 665.655 274.768C667.251 274.768 668.329 273.564 668.329 271.814V266.48H669.827ZM675.49 270.834H680.334V276H679.144L679.032 274.362C678.36 275.468 677.226 276.168 675.602 276.168C672.76 276.168 670.674 273.984 670.674 271.338C670.674 268.384 672.9 266.312 675.672 266.312C677.73 266.312 679.69 267.446 680.25 269.714H678.64C678.15 268.244 676.82 267.712 675.7 267.712C673.698 267.712 672.2 269.182 672.2 271.338C672.2 273.172 673.572 274.754 675.602 274.754C677.282 274.754 678.36 273.69 678.696 272.234H675.49V270.834Z" fill="#B1B1B1"/>
<path opacity="0.5" d="M735.692 266.312C737.442 266.312 739.29 267.04 739.514 269.238H738.03C737.862 268.23 737.176 267.614 735.79 267.614C734.572 267.614 733.774 268.132 733.774 269.056C733.774 269.812 734.334 270.204 735.356 270.4L736.686 270.666C738.464 271.016 739.486 271.772 739.486 273.242C739.486 275.02 738.03 276.168 735.846 276.168C733.522 276.168 731.968 274.95 731.786 272.906H733.284C733.466 274.11 734.418 274.824 735.93 274.824C737.176 274.824 737.946 274.306 737.946 273.424C737.946 272.85 737.568 272.332 736.448 272.136L734.782 271.814C733.004 271.478 732.178 270.568 732.178 269.168C732.178 267.432 733.578 266.312 735.692 266.312ZM747.411 267.866H742.091V270.596H746.851V271.982H742.091V274.6H747.411V276H740.579V266.48H747.411V267.866ZM751.949 266.48C754.203 266.48 755.687 267.782 755.687 269.728C755.687 271.772 754.119 273.13 751.739 273.13H749.947V276H748.435V266.48H751.949ZM751.907 271.744C753.279 271.744 754.203 270.932 754.203 269.728C754.203 268.622 753.279 267.866 751.907 267.866H749.947V271.744H751.907ZM763.835 266.48V267.866H760.461V276H758.963V267.866H755.589V266.48H763.835Z" fill="#B1B1B1"/>
<path opacity="0.5" d="M820.027 266.312C822.771 266.312 824.983 268.496 824.983 271.24C824.983 273.984 822.771 276.168 820.027 276.168C817.283 276.168 815.071 273.984 815.071 271.24C815.071 268.496 817.283 266.312 820.027 266.312ZM820.027 274.754C821.973 274.754 823.457 273.186 823.457 271.24C823.457 269.294 821.973 267.712 820.027 267.712C818.081 267.712 816.597 269.294 816.597 271.24C816.597 273.186 818.081 274.754 820.027 274.754ZM830.726 274.768C832.308 274.768 833.4 273.872 833.778 272.388H835.332C834.884 274.67 833.106 276.182 830.726 276.182C827.982 276.182 825.784 274.082 825.784 271.24C825.784 268.384 827.982 266.312 830.726 266.312C833.106 266.312 834.884 267.796 835.332 270.078H833.778C833.4 268.608 832.308 267.712 830.726 267.712C828.78 267.712 827.31 269.182 827.31 271.24C827.31 273.284 828.78 274.768 830.726 274.768ZM843.119 266.48V267.866H839.745V276H838.247V267.866H834.873V266.48H843.119Z" fill="#B1B1B1"/>
<path opacity="0.5" d="M902.88 266.48H904.378V276H903.174L897.56 269.28V276H896.048V266.48H897.21L902.88 273.34V266.48ZM910.452 266.312C913.196 266.312 915.408 268.496 915.408 271.24C915.408 273.984 913.196 276.168 910.452 276.168C907.708 276.168 905.496 273.984 905.496 271.24C905.496 268.496 907.708 266.312 910.452 266.312ZM910.452 274.754C912.398 274.754 913.882 273.186 913.882 271.24C913.882 269.294 912.398 267.712 910.452 267.712C908.506 267.712 907.022 269.294 907.022 271.24C907.022 273.186 908.506 274.754 910.452 274.754ZM923.38 266.48H925.018L920.692 276.056H919.306L914.966 266.48H916.618L919.992 274.012L923.38 266.48Z" fill="#B1B1B1"/>
<path opacity="0.5" d="M981.797 266.48C984.723 266.48 986.851 268.468 986.851 271.184C986.851 273.97 984.723 276 981.797 276H978.283V266.48H981.797ZM981.797 274.6C983.799 274.6 985.325 273.144 985.325 271.184C985.325 269.294 983.799 267.866 981.797 267.866H979.795V274.6H981.797ZM994.788 267.866H989.468V270.596H994.228V271.982H989.468V274.6H994.788V276H987.956V266.48H994.788V267.866ZM1000.17 274.768C1001.75 274.768 1002.85 273.872 1003.22 272.388H1004.78C1004.33 274.67 1002.55 276.182 1000.17 276.182C997.428 276.182 995.23 274.082 995.23 271.24C995.23 268.384 997.428 266.312 1000.17 266.312C1002.55 266.312 1004.33 267.796 1004.78 270.078H1003.22C1002.85 268.608 1001.75 267.712 1000.17 267.712C998.226 267.712 996.756 269.182 996.756 271.24C996.756 273.284 998.226 274.768 1000.17 274.768Z" fill="#B1B1B1"/>
</svg>
